<?xml version="1.0" encoding="utf-8"?><svg xmlns="http://www.w3.org/2000/svg" xmlns:xlink="http://www.w3.org/1999/xlink"><symbol viewBox="0 0 11 16" id="contacts-address" xmlns="http://www.w3.org/2000/svg"><path d="M5.501 0C2.463 0 0 2.417 0 5.4c0 1.525 1.515 4.258 1.515 4.258L5.298 16l3.948-6.268S11 7.124 11 5.399C11 2.417 8.538 0 5.501 0zm-.026 8.373c-1.74 0-3.149-1.392-3.149-3.113 0-1.719 1.409-3.11 3.15-3.11 1.738 0 3.15 1.391 3.15 3.11 0 1.72-1.412 3.113-3.15 3.113z"/></symbol><symbol viewBox="0 0 14 14" id="contacts-doc" xmlns="http://www.w3.org/2000/svg"><path d="M12.065 3.764L8.382.081A.277.277 0 0 0 8.186 0h-5.19c-.63 0-1.142.513-1.142 1.143v11.714c0 .63.512 1.143 1.142 1.143h8.007c.63 0 1.143-.513 1.143-1.143V3.96a.277.277 0 0 0-.081-.196zM8.463.944l2.737 2.74H9.052a.59.59 0 0 1-.59-.59V.945zm3.13 11.913a.59.59 0 0 1-.59.59H2.996a.59.59 0 0 1-.59-.59V1.143a.59.59 0 0 1 .59-.59H7.91v2.54c0 .63.513 1.143 1.143 1.143h2.54v8.621zm-2.38-5.83H4.786a.277.277 0 0 0 0 .554h4.427a.277.277 0 1 0 0-.553zm0 1.237H4.786a.277.277 0 0 0 0 .553h4.427a.277.277 0 1 0 0-.553zm0 1.235H4.786a.277.277 0 0 0 0 .554h4.427a.277.277 0 1 0 0-.554zm-1.439 1.236H4.786a.277.277 0 0 0 0 .554h2.988a.277.277 0 1 0 0-.554z"/></symbol><symbol viewBox="0 0 13 13" id="contacts-email" xmlns="http://www.w3.org/2000/svg"><path d="M1.863 11.177a6.322 6.322 0 0 0 2.128 1.341A7.68 7.68 0 0 0 6.733 13c1.112 0 2.138-.168 3.06-.513.836-.304.116-1.844-.498-1.592-.677.282-1.503.429-2.446.429a5.781 5.781 0 0 1-2.011-.335 4.386 4.386 0 0 1-1.535-.943 4.29 4.29 0 0 1-.995-1.487c-.244-.587-.36-1.257-.36-1.99 0-.692.116-1.352.35-1.939.232-.586.55-1.11.973-1.53a4.425 4.425 0 0 1 1.503-1.015 5.092 5.092 0 0 1 1.959-.367c.667 0 1.28.094 1.831.262a3.78 3.78 0 0 1 1.398.775c.392.346.699.765.92 1.268.223.503.33 1.09.33 1.76a4.6 4.6 0 0 1-.128 1.1c-.085.324-.19.618-.339.848-.137.22-.296.398-.487.524-.222.146-.55.23-.804.146-.318-.104-.254-.544-.233-.806.032-.356.127-.691.2-1.037.117-.566.244-1.121.36-1.676.064-.304.138-.618.202-.922a.634.634 0 0 0-.625-.765h-.465a.635.635 0 0 0-.615.461c-.031.126-.063.23-.063.23-.233-.712-1.09-.91-1.768-.9-.89.01-1.704.46-2.297 1.1-.053.062-.117.125-.17.188a4.03 4.03 0 0 0-.698 1.247c-.17.482-.254.974-.254 1.477 0 .43.063.838.18 1.204.127.378.306.702.54.975.232.272.529.492.878.65.35.156.741.24 1.165.24.317 0 .614-.052.878-.146a3.28 3.28 0 0 0 .688-.346c.16-.105.307-.23.424-.346.074.136.159.251.275.367.297.314.752.471 1.355.471a3.44 3.44 0 0 0 1.377-.283 3.258 3.258 0 0 0 1.153-.859c.318-.377.583-.838.773-1.382.19-.545.286-1.174.286-1.865 0-.943-.18-1.78-.53-2.483a5.199 5.199 0 0 0-1.418-1.77C10.47.954 9.792.608 9.041.367A7.132 7.132 0 0 0 6.733 0c-.921 0-1.8.168-2.615.492A6.844 6.844 0 0 0 1.98 1.865 6.356 6.356 0 0 0 .53 3.928 6.359 6.359 0 0 0 0 6.516c0 .932.159 1.812.487 2.598a5.908 5.908 0 0 0 1.376 2.063zm5.727-4.4c-.074.283-.18.556-.328.807a1.9 1.9 0 0 1-.56.597c-.213.147-.467.22-.784.22a.886.886 0 0 1-.477-.115.908.908 0 0 1-.307-.325 1.518 1.518 0 0 1-.169-.46 2.563 2.563 0 0 1-.053-.462c0-.293.042-.586.127-.89a2.74 2.74 0 0 1 .36-.796c.159-.23.339-.42.561-.566a1.18 1.18 0 0 1 .688-.199c.212 0 .381.032.508.105a.883.883 0 0 1 .307.283c.085.126.138.272.18.43.043.177.064.366.064.544-.01.262-.042.534-.117.828z"/></symbol><symbol viewBox="0 0 11 12" id="contacts-tel" xmlns="http://www.w3.org/2000/svg"><path d="M4.265 6.048c.298.364.567.63.564.629A8.752 8.752 0 0 0 6.27 8.1c.366.288.94.325 1.253.127.312-.198.912-.6 1.36-.498.378.086.878.375 1.48 1.116 1.42 1.748.148 2.294-.733 2.999-.883.704-3.794-1.04-6.46-3.884C.5 5.117-.504 2.176.234 1.31.974.444 1.59-.84 3.158.765c.666.68.905 1.221.96 1.62.065.474-.363 1.068-.575 1.378-.212.31-.218.91.03 1.313.219.355.453.679.692.972z"/></symbol><symbol viewBox="0 0 54 37" id="icon-next" xmlns="http://www.w3.org/2000/svg"><path d="M53.264 16.732l-16.07-16a2.519 2.519 0 0 0-3.55 0c-.98.977-.98 2.56 0 3.536L45.427 16H2.511A2.506 2.506 0 0 0 0 18.5C0 19.88 1.124 21 2.51 21h42.917L33.644 32.732c-.98.977-.98 2.56 0 3.536A2.51 2.51 0 0 0 35.42 37a2.51 2.51 0 0 0 1.775-.732l16.07-16c.98-.977.98-2.56 0-3.536z"/></symbol><symbol viewBox="0 0 54 37" id="icon-prev" xmlns="http://www.w3.org/2000/svg"><path d="M.736 20.268l16.069 16c.98.976 2.57.976 3.55 0a2.49 2.49 0 0 0 0-3.536L8.574 21H51.49c1.386 0 2.51-1.12 2.51-2.5S52.876 16 51.49 16H8.572L20.356 4.268c.98-.977.98-2.56 0-3.536A2.51 2.51 0 0 0 18.58 0a2.51 2.51 0 0 0-1.775.732l-16.07 16c-.98.977-.98 2.56 0 3.536z"/></symbol><symbol viewBox="0 0 16 17" id="icon-search" xmlns="http://www.w3.org/2000/svg"><path d="M15.757 15.484l-3.944-4.208a6.949 6.949 0 0 0 1.57-4.412C13.382 3.079 10.38 0 6.69 0 3.001 0 0 3.08 0 6.864s3.002 6.863 6.691 6.863a6.505 6.505 0 0 0 3.834-1.242l3.974 4.24a.856.856 0 0 0 1.234.025.913.913 0 0 0 .024-1.266zM6.69 1.791c2.727 0 4.946 2.275 4.946 5.073 0 2.797-2.219 5.073-4.946 5.073S1.746 9.66 1.746 6.864c0-2.798 2.218-5.073 4.945-5.073z"/></symbol><symbol viewBox="0 0 120 50" id="logotip" xmlns="http://www.w3.org/2000/svg"><path d="M0 0h3.24l1.766 7.004 1.013 4.803.766-4.774L8.275 0h3.4L8.19 15.28a14.614 14.614 0 0 1-.55 2.001 6.694 6.694 0 0 1-.796 1.516 3.61 3.61 0 0 1-1.186 1.072c-.463.257-1.032.447-1.707.571-.666.115-1.447.143-2.344.086v-2.873c.887.057 1.558-.029 2.01-.257.454-.229.744-.696.869-1.401l.029-.186L0 0zm13.05 20.497V0h10.287v20.497h-3.328V2.93h-3.704v17.567H13.05zm12.645 0V0h4.803c1.61 0 2.821.434 3.631 1.3.82.868 1.23 2.126 1.23 3.774v2.659c0 1.649-.41 2.906-1.23 3.774-.81.857-2.02 1.286-3.631 1.286H28.95v7.704h-3.255zm3.255-10.62h1.548c.54 0 .94-.148 1.2-.443.261-.295.391-.796.391-1.5V4.86c0-.705-.13-1.2-.39-1.487-.26-.295-.66-.443-1.201-.443H28.95v6.947zm7.06 10.62L39.323 0h4.775l3.313 20.497h-3.284l-.565-3.716h-4.007l-.565 3.716h-2.98zm3.964-6.503h3.14L41.55 3.63l-1.577 10.363zm8.956 6.503V0h4.919c1.669 0 2.889.386 3.66 1.158.782.772 1.172 1.958 1.172 3.559v.729c0 2.096-.704 3.473-2.112 4.13 1.62.62 2.43 2.083 2.43 4.39v1.671c0 1.582-.42 2.788-1.258 3.617-.84.829-2.07 1.243-3.69 1.243H48.93zm3.255-2.93h1.866c.57 0 .994-.152 1.274-.457.28-.305.42-.825.42-1.558v-1.787c0-.934-.165-1.582-.493-1.944-.318-.362-.853-.543-1.606-.543h-1.46v6.29zm0-9.22h1.273c.647 0 1.134-.161 1.462-.485.328-.334.491-.891.491-1.673V5.046c0-.734-.13-1.268-.39-1.601-.26-.343-.68-.515-1.259-.515h-1.577v5.418zm7.856 12.179v-2.93c.405 0 .719-.02.94-.057.222-.039.42-.13.594-.272.173-.152.294-.367.361-.643.068-.277.111-.653.13-1.13L62.603 0h9.201v20.497H68.49V2.93h-2.835l-.362 12.393c-.058 1.868-.458 3.202-1.2 4.002-.734.8-1.916 1.201-3.546 1.201h-.506zm14.265-.029V0h8.883v2.93h-5.627v5.718h4.47v2.916h-4.47v6.003h5.627v2.93h-8.883zm10.909 0V0h3.255v8.79h3.704V0H95.5v20.497h-3.327v-8.776H88.47v8.776h-3.255zm12.645 0V0h2.908v12.979l1.186-4.517L104.616 0h3.588v20.497h-2.937V6.061l-1.331 5.045-2.734 9.391H97.86zm12.645 0V0h8.883v2.93h-5.628v5.718h4.47v2.916h-4.47v6.003h5.628v2.93h-8.883zM.68 42.396v-5.59c0-1.648.405-2.906 1.215-3.773.82-.867 2.035-1.3 3.646-1.3h1.215v-2.46h3.212v2.46h1.201c1.61 0 2.821.433 3.631 1.3.82.867 1.23 2.125 1.23 3.774v5.589c0 1.648-.41 2.906-1.23 3.773-.81.858-2.02 1.287-3.63 1.287H9.967v2.315H6.756v-2.315H5.541c-1.61 0-2.826-.43-3.646-1.287-.81-.867-1.215-2.125-1.215-3.773zm3.24.2c0 1.372.54 2.058 1.621 2.058h1.215V34.577H5.541c-.54 0-.945.162-1.215.486-.27.314-.405.824-.405 1.53v6.003zm6.048 2.058h1.201c1.09 0 1.635-.686 1.635-2.058v-6.004c0-1.343-.545-2.015-1.635-2.015h-1.2v10.077zm8.261 5.117V29.274h2.908v12.979l1.187-4.517 2.662-8.462h3.588V49.77h-2.937V35.334l-1.331 5.046-2.735 9.391H18.23zm12.645 0V29.274h3.255v8.79h3.704v-8.79h3.328V49.77h-3.328v-8.776H34.13v8.776h-3.255zm11.791 0l3.313-20.497h4.775l3.313 20.497h-3.284l-.564-3.716H46.21l-.564 3.716h-2.98zm3.965-6.503h3.139l-1.563-10.364-1.577 10.364zm8.955 6.503V29.274h3.255v8.79h3.704v-8.79h3.328V49.77h-3.328v-8.776H58.84v8.776h-3.255zm12.37-4.917V34.191c0-1.649.415-2.916 1.244-3.802.83-.896 2.035-1.344 3.617-1.344 1.582 0 2.788.448 3.617 1.344.83.886 1.244 2.153 1.244 3.802v2.001h-3.081v-2.201c0-1.344-.56-2.016-1.679-2.016-1.128 0-1.692.672-1.692 2.016v11.063c0 1.334.564 2.002 1.692 2.002 1.12 0 1.679-.668 1.679-2.002v-2.93h3.081v2.73c0 1.649-.415 2.92-1.244 3.817-.83.886-2.035 1.329-3.617 1.329-1.582 0-2.787-.443-3.617-1.33-.83-.895-1.244-2.167-1.244-3.816zm10.85 4.917l3.314-20.497h4.774l3.313 20.497h-3.284l-.564-3.716H82.35l-.564 3.716h-2.98zm3.965-6.503h3.14l-1.563-10.364-1.577 10.364zm8.927 6.503V29.274h4.528l2.402 14.551 2.228-14.551h4.528V49.77h-3.082V35.077l-2.257 14.694h-3.081l-2.43-14.494v14.494h-2.837zm16.059 0V29.274h2.908v12.979l1.186-4.517 2.662-8.462h3.588V49.77h-2.937V35.334l-1.331 5.046-2.734 9.391h-3.342z"/></symbol><symbol viewBox="0 0 12 12" id="modal-close" xmlns="http://www.w3.org/2000/svg"><path d="M11.414 2.414a1.414 1.414 0 1 0-2-2l-3.5 3.5-3.5-3.5a1.414 1.414 0 1 0-2 2l3.5 3.5-3.5 3.5a1.414 1.414 0 0 0 2 2l3.5-3.5 3.5 3.5a1.414 1.414 0 1 0 2-2l-3.5-3.5 3.5-3.5z"/></symbol><symbol viewBox="0 0 7 4" id="navbar-dropdown" xmlns="http://www.w3.org/2000/svg"><path d="M3.5 4a.488.488 0 0 1-.347-.144L.143.84a.492.492 0 0 1 0-.695.49.49 0 0 1 .694 0L3.5 2.814 6.163.144a.49.49 0 0 1 .693 0 .492.492 0 0 1 0 .695l-3.01 3.017A.488.488 0 0 1 3.5 4z"/></symbol><symbol viewBox="0 0 11 17" id="pagin-next" xmlns="http://www.w3.org/2000/svg"><path fill-rule="evenodd" clip-rule="evenodd" d="M.9.98A1.5 1.5 0 0 0 .98 3.1l5.816 5.4-5.817 5.4a1.5 1.5 0 0 0 2.042 2.2l7-6.5a1.5 1.5 0 0 0 0-2.2l-7-6.5A1.5 1.5 0 0 0 .9.98z"/></symbol><symbol viewBox="0 0 11 17" id="pagin-prev" xmlns="http://www.w3.org/2000/svg"><path fill-rule="evenodd" clip-rule="evenodd" d="M10.1.98a1.5 1.5 0 0 1-.08 2.12L4.205 8.5l5.817 5.4a1.5 1.5 0 0 1-2.042 2.2l-7-6.5a1.5 1.5 0 0 1 0-2.2l7-6.5a1.5 1.5 0 0 1 2.12.08z"/></symbol><symbol viewBox="0 0 59 58" id="soc-fb" xmlns="http://www.w3.org/2000/svg"><path d="M58.989 5a5 5 0 0 0-5-5H5.931a5 5 0 0 0-5 5v48a5 5 0 0 0 5 5h16.612V36.676h-4.536v-7.35h4.536v-4.424c0-3.14.765-5.517 2.294-7.13 1.53-1.613 4.047-2.42 7.551-2.42h6.057v7.35h-3.789c-.694 0-1.25.056-1.668.168-.417.113-.72.315-.907.608a2.44 2.44 0 0 0-.36.893c-.053.303-.08.73-.08 1.281v3.674h6.857l-.8 7.35H31.64V58h22.35a5 5 0 0 0 5-5V5z"/></symbol><symbol viewBox="0 0 59 58" id="soc-inst" xmlns="http://www.w3.org/2000/svg"><path d="M34.47 19.614c0-.676.552-1.228 1.229-1.228h3.088c.677 0 1.23.552 1.23 1.228v2.941c0 .676-.553 1.23-1.23 1.23h-3.088c-.677 0-1.23-.554-1.23-1.23v-2.94zm3.155 7.281h2.405v11.53c0 .597-.488 1.085-1.086 1.085H19.918a1.09 1.09 0 0 1-1.086-1.085v-11.53h2.51a7.964 7.964 0 0 0-.351 2.342c0 4.54 3.802 8.22 8.492 8.22 4.69 0 8.493-3.68 8.493-8.22 0-.813-.123-1.6-.35-2.342zm-13.63 2.046c0-2.934 2.457-5.312 5.488-5.312 3.03 0 5.487 2.378 5.487 5.312s-2.457 5.31-5.487 5.31c-3.03 0-5.487-2.376-5.487-5.31z"/><path fill-rule="evenodd" clip-rule="evenodd" d="M58.486 5a5 5 0 0 0-5-5H5.428a5 5 0 0 0-5 5v48a5 5 0 0 0 5 5h48.058a5 5 0 0 0 5-5V5zM39.611 15.353H19.303c-1.93 0-3.507 1.427-3.507 3.503v20.288c0 2.076 1.578 3.503 3.507 3.503H39.61c1.929 0 3.507-1.427 3.507-3.503V18.856c0-2.076-1.578-3.503-3.507-3.503z"/></symbol><symbol viewBox="0 0 59 58" id="soc-ok" xmlns="http://www.w3.org/2000/svg"><path d="M29.03 16.352a4.206 4.206 0 0 1 4.22 4.216 4.197 4.197 0 0 1-4.198 4.235 4.206 4.206 0 0 1-4.251-4.184 4.211 4.211 0 0 1 4.23-4.267z"/><path fill-rule="evenodd" clip-rule="evenodd" d="M0 5a5 5 0 0 1 5-5h48.059a5 5 0 0 1 5 5v48a5 5 0 0 1-5 5H5a5 5 0 0 1-5-5V5zm27.35 30.973c-2.646-.276-5.031-.927-7.074-2.525l-.148-.116a7.272 7.272 0 0 1-.598-.495c-.894-.86-.984-1.842-.276-2.855.605-.867 1.62-1.099 2.676-.601.205.096.4.217.586.346 3.806 2.615 9.034 2.687 12.855.118.378-.29.783-.527 1.252-.648.911-.234 1.762.101 2.25.898.56.912.553 1.8-.136 2.508-1.056 1.084-2.327 1.868-3.739 2.415-1.335.518-2.797.778-4.244.951l.146.16.026.028c.112.122.191.209.286.304l2.16 2.165a1203 1203 0 0 1 3.737 3.755c.667.674.807 1.51.44 2.295-.402.857-1.302 1.422-2.183 1.361-.559-.038-.995-.316-1.382-.706-.422-.426-.847-.848-1.273-1.271l-.188-.188-.048-.047c-.988-.982-1.975-1.963-2.937-2.97-.423-.442-.626-.359-1 .025a299.64 299.64 0 0 1-4.532 4.55c-.685.675-1.5.797-2.294.411-.844-.409-1.381-1.27-1.34-2.136.029-.586.317-1.033.719-1.434 1.508-1.506 3.012-3.014 4.517-4.523l1.306-1.309c.08-.08.156-.163.247-.262l.188-.204zM20.4 20.556c-.028 4.726 3.841 8.638 8.561 8.654 4.767.017 8.664-3.806 8.689-8.522.023-4.828-3.81-8.734-8.585-8.747-4.766-.013-8.639 3.838-8.666 8.615z"/></symbol><symbol viewBox="0 0 59 58" id="soc-vk" xmlns="http://www.w3.org/2000/svg"><path fill-rule="evenodd" clip-rule="evenodd" d="M58.059 5a5 5 0 0 0-5-5H5a5 5 0 0 0-5 5v48a5 5 0 0 0 5 5h48.059a5 5 0 0 0 5-5V5zM47.47 38.611c.043.069.086.15.136.246.043.103.093.273.136.526.05.246.05.464-.007.663-.05.198-.222.375-.509.54-.28.164-.688.245-1.204.245l-5.237.076c-.33.068-.71.034-1.146-.096-.437-.13-.796-.273-1.068-.43l-.408-.233c-.409-.273-.889-.69-1.433-1.25a30.38 30.38 0 0 1-1.404-1.51 6.566 6.566 0 0 0-1.247-1.134c-.444-.3-.824-.403-1.154-.3a.944.944 0 0 0-.164.068c-.072.026-.187.122-.351.28a2.712 2.712 0 0 0-.437.574c-.137.225-.251.56-.352 1.01a5.83 5.83 0 0 0-.136 1.51c0 .2-.021.377-.071.54a1.077 1.077 0 0 1-.15.363l-.08.095c-.243.247-.601.39-1.081.43h-2.35a9.656 9.656 0 0 1-2.988-.32c-1.017-.267-1.913-.608-2.687-1.032a25.604 25.604 0 0 1-2.106-1.291c-.63-.438-1.11-.806-1.44-1.121l-.51-.472a11.963 11.963 0 0 1-.565-.587c-.236-.26-.724-.854-1.462-1.777a48.382 48.382 0 0 1-2.17-2.944c-.71-1.039-1.548-2.406-2.508-4.113a56.894 56.894 0 0 1-2.658-5.33 1.544 1.544 0 0 1-.122-.526c0-.143.021-.246.065-.314l.078-.117c.208-.245.595-.369 1.168-.369l5.603-.04c.165.027.322.068.473.13.15.054.265.109.33.164l.1.061c.222.143.387.348.494.622.272.655.58 1.325.939 2.022.35.697.63 1.23.838 1.592l.33.567c.393.779.78 1.455 1.146 2.03.372.573.702 1.018.996 1.338.286.322.573.568.845.752.272.185.502.274.695.274.193 0 .372-.034.552-.096a.317.317 0 0 0 .1-.096c.036-.055.122-.198.244-.43.129-.233.215-.54.279-.916.057-.375.122-.902.194-1.578.027-.29.043-.43.047-.57.005-.185-.01-.371-.047-.913a9.076 9.076 0 0 0-.187-1.42c-.093-.425-.193-.726-.286-.896l-.122-.233c-.344-.444-.924-.724-1.741-.84-.18-.027-.143-.184.1-.472a2.61 2.61 0 0 1 .774-.587c.723-.341 2.35-.499 4.886-.471 1.118.013 2.035.096 2.759.253.272.068.501.157.687.266a1.1 1.1 0 0 1 .423.471c.093.198.165.41.215.622.05.219.072.513.072.888 0 .376-.008.738-.022 1.073-.006.145-.012.133-.02.122-.008-.017-.018-.034-.03.295a43.507 43.507 0 0 0-.029 1.612c0 .144-.007.418-.021.82l-.003.136c-.006.339-.01.607-.004.8a7.4 7.4 0 0 0 .071.793c.043.3.122.553.237.759.114.205.265.361.458.478.094.017.188.037.286.06l.065.015c.122.027.301-.04.53-.212a6.33 6.33 0 0 0 .782-.67c.286-.28.637-.71 1.06-1.305.423-.594.888-1.29 1.39-2.097a31.108 31.108 0 0 0 2.192-4.386c.05-.13.122-.247.2-.343a.881.881 0 0 1 .223-.204l.079-.062.1-.048.265-.061c.18-.034.315-.041.408-.007l5.89-.04c.53-.07.967-.05 1.31.047.338.096.553.205.631.321l.122.191c.316.827-.709 2.74-3.066 5.733-.33.417-.774.97-1.333 1.66-1.06 1.298-1.676 2.153-1.841 2.556-.23.533-.136 1.058.286 1.578.23.273.781.806 1.655 1.599h.022l.021.02.022.02.043.042c1.92 1.7 3.224 3.143 3.905 4.311z"/></symbol></svg>