<svg width="14" height="14" viewBox="0 0 14 14" xmlns="http://www.w3.org/2000/svg"><path d="M12.0648 3.76403L8.38181 0.0810469C8.32991 0.0291484 8.25955 0 8.18614 0H2.99648C2.36624 0 1.85352 0.512723 1.85352 1.14297V12.857C1.85352 13.4873 2.36624 14 2.99648 14H11.0028C11.6331 14 12.1458 13.4873 12.1458 12.857V3.95968C12.1458 3.88631 12.1167 3.8159 12.0648 3.76403ZM8.46285 0.944699L11.2011 3.68293H9.05241C8.72732 3.68293 8.46288 3.41846 8.46288 3.09334V0.944699H8.46285ZM11.5924 12.857C11.5924 13.1821 11.328 13.4466 11.0028 13.4466H2.99648C2.67139 13.4466 2.4069 13.1821 2.4069 12.857V1.14297C2.4069 0.817879 2.67139 0.553383 2.99648 0.553383H7.90945V3.0934C7.90945 3.72364 8.42214 4.23637 9.05239 4.23637H11.5924V12.857Z M9.21311 7.02767H4.78621C4.63342 7.02767 4.50952 7.15157 4.50952 7.30436C4.50952 7.45716 4.63342 7.58105 4.78621 7.58105H9.21311C9.36596 7.58105 9.4898 7.45716 9.4898 7.30436C9.4898 7.15157 9.36596 7.02767 9.21311 7.02767Z M9.21311 8.2635H4.78621C4.63342 8.2635 4.50952 8.38739 4.50952 8.54019C4.50952 8.69299 4.63342 8.81688 4.78621 8.81688H9.21311C9.36596 8.81688 9.4898 8.69299 9.4898 8.54019C9.4898 8.38739 9.36596 8.2635 9.21311 8.2635Z M9.21311 9.49933H4.78621C4.63342 9.49933 4.50952 9.62322 4.50952 9.77602C4.50952 9.92882 4.63342 10.0527 4.78621 10.0527H9.21311C9.36596 10.0527 9.4898 9.92882 9.4898 9.77602C9.4898 9.62322 9.36596 9.49933 9.21311 9.49933Z M7.77437 10.7352H4.78621C4.63342 10.7352 4.50952 10.8591 4.50952 11.0119C4.50952 11.1647 4.63342 11.2886 4.78621 11.2886H7.77437C7.92722 11.2886 8.05106 11.1647 8.05106 11.0119C8.05106 10.8591 7.92722 10.7352 7.77437 10.7352Z"/></svg>