<svg width="120" height="50" viewBox="0 0 120 50" xmlns="http://www.w3.org/2000/svg"><path d="M0 0H3.24077L5.00584 7.004L6.01858 11.8067L6.78537 7.03259L8.27555 0H11.6755L8.18874 15.2802C8.02477 16.0616 7.84151 16.7286 7.63896 17.2813C7.43642 17.8245 7.17117 18.3295 6.84324 18.7965C6.5153 19.2539 6.11985 19.6112 5.65688 19.8685C5.19392 20.1258 4.62485 20.3164 3.94969 20.4403C3.28418 20.5546 2.50292 20.5832 1.60592 20.526V17.6529C2.49327 17.7101 3.16361 17.6244 3.61693 17.3957C4.07026 17.167 4.35961 16.7 4.485 15.9949L4.51393 15.809L0 0Z M13.0499 20.4974V0H23.3365V20.4974H20.0089V2.93025H16.3051V20.4974H13.0499Z M25.6947 20.4974V0H30.498C32.1087 0 33.3192 0.433581 34.1294 1.30074C34.9492 2.16791 35.3591 3.42577 35.3591 5.07433V7.73299C35.3591 9.38155 34.9492 10.6394 34.1294 11.5066C33.3192 12.3642 32.1087 12.793 30.498 12.793H28.9499V20.4974H25.6947ZM28.9499 9.87707H30.498C31.0381 9.87707 31.4384 9.72937 31.6988 9.43396C31.9592 9.13855 32.0894 8.63827 32.0894 7.9331V4.85992C32.0894 4.15475 31.9592 3.65923 31.6988 3.37336C31.4384 3.07795 31.0381 2.93025 30.498 2.93025H28.9499V9.87707Z M36.0102 20.4974L39.3233 0H44.0977L47.4108 20.4974H44.1266L43.5624 16.781H39.5548L38.9905 20.4974H36.0102ZM39.9744 13.9937H43.1139L41.5513 3.63065L39.9744 13.9937Z M48.9299 20.4974V0H53.8489C55.5175 0 56.7376 0.385935 57.5093 1.1578C58.2905 1.92967 58.6811 3.11607 58.6811 4.71698V5.44597C58.6811 7.5424 57.977 8.91938 56.5688 9.5769C58.1892 10.1963 58.9994 11.659 58.9994 13.9651V15.6375C58.9994 17.2194 58.5799 18.4248 57.7407 19.2539C56.9016 20.0829 55.6718 20.4974 54.0515 20.4974H48.9299ZM52.1851 17.5672H54.0515C54.6205 17.5672 55.0449 17.4147 55.3246 17.1098C55.6043 16.8048 55.7442 16.2855 55.7442 15.5517V13.765C55.7442 12.8311 55.5802 12.1832 55.2523 11.821C54.934 11.4589 54.3987 11.2779 53.6464 11.2779H52.1851V17.5672ZM52.1851 8.34763H53.4583C54.1045 8.34763 54.5916 8.18563 54.9195 7.86163C55.2475 7.52811 55.4114 6.97065 55.4114 6.18925V5.04574C55.4114 4.31199 55.2812 3.77835 55.0208 3.44483C54.7604 3.10177 54.3408 2.93025 53.7621 2.93025H52.1851V8.34763Z M60.0411 20.526V17.5958C60.4462 17.5958 60.7597 17.5767 60.9815 17.5386C61.2033 17.5005 61.4011 17.4099 61.5747 17.267C61.7483 17.1145 61.8689 16.9001 61.9364 16.6238C62.0039 16.3474 62.0473 15.971 62.0666 15.4946L62.6019 0H71.8034V20.4974H68.4903V2.93025H65.6546L65.2929 15.323C65.235 17.1908 64.8347 18.5249 64.0921 19.3253C63.359 20.1258 62.1775 20.526 60.5475 20.526H60.0411Z M74.3063 20.4974V0H83.1895V2.93025H77.5615V8.6478H82.0321V11.5638H77.5615V17.5672H83.1895V20.4974H74.3063Z M85.215 20.4974V0H88.4702V8.79074H92.1739V0H95.5015V20.4974H92.1739V11.721H88.4702V20.4974H85.215Z M97.8598 20.4974V0H100.768V12.9788L101.954 8.46198L104.616 0H108.204V20.4974H105.267V6.06061L103.936 11.1063L101.202 20.4974H97.8598Z M110.505 20.4974V0H119.388V2.93025H113.76V8.6478H118.23V11.5638H113.76V17.5672H119.388V20.4974H110.505Z M0.679984 42.3957V36.8067C0.679984 35.1582 1.08508 33.9003 1.89527 33.0332C2.71511 32.166 3.9304 31.7324 5.54114 31.7324H6.75643V29.2739H9.96827V31.7324H11.1691C12.7798 31.7324 13.9903 32.166 14.8005 33.0332C15.6203 33.9003 16.0303 35.1582 16.0303 36.8067V42.3957C16.0303 44.0442 15.6203 45.3021 14.8005 46.1692C13.9903 47.0269 12.7798 47.4557 11.1691 47.4557H9.96827V49.7713H6.75643V47.4557H5.54114C3.9304 47.4557 2.71511 47.0269 1.89527 46.1692C1.08508 45.3021 0.679984 44.0442 0.679984 42.3957ZM3.92076 42.5958C3.92076 43.968 4.46089 44.6541 5.54114 44.6541H6.75643V34.5769H5.54114C5.00101 34.5769 4.59592 34.7389 4.32585 35.0629C4.05579 35.3774 3.92076 35.8872 3.92076 36.5923V42.5958ZM9.96827 44.6541H11.1691C12.259 44.6541 12.8039 43.968 12.8039 42.5958V36.5923C12.8039 35.2487 12.259 34.5769 11.1691 34.5769H9.96827V44.6541Z M18.2293 49.7713V29.2739H21.1374V42.2527L22.3237 37.7358L24.9858 29.2739H28.5738V49.7713H25.6368V35.3345L24.3058 40.3802L21.5714 49.7713H18.2293Z M30.8741 49.7713V29.2739H34.1294V38.0646H37.8331V29.2739H41.1607V49.7713H37.8331V40.9949H34.1294V49.7713H30.8741Z M42.6654 49.7713L45.9785 29.2739H50.7528L54.0659 49.7713H50.7818L50.2175 46.0549H46.2099L45.6457 49.7713H42.6654ZM46.6295 43.2676H49.769L48.2065 32.9045L46.6295 43.2676Z M55.585 49.7713V29.2739H58.8403V38.0646H62.544V29.2739H65.8716V49.7713H62.544V40.9949H58.8403V49.7713H55.585Z M67.955 44.8542V34.191C67.955 32.5424 68.3697 31.275 69.1992 30.3888C70.0287 29.493 71.2343 29.0452 72.8161 29.0452C74.3979 29.0452 75.6036 29.493 76.4331 30.3888C77.2625 31.275 77.6773 32.5424 77.6773 34.191V36.1921H74.5956V33.9909C74.5956 32.6472 74.0362 31.9754 72.9174 31.9754C71.7889 31.9754 71.2247 32.6472 71.2247 33.9909V45.0543C71.2247 46.3884 71.7889 47.0555 72.9174 47.0555C74.0362 47.0555 74.5956 46.3884 74.5956 45.0543V42.1241H77.6773V44.8542C77.6773 46.5028 77.2625 47.7749 76.4331 48.6707C75.6036 49.5569 74.3979 50 72.8161 50C71.2343 50 70.0287 49.5569 69.1992 48.6707C68.3697 47.7749 67.955 46.5028 67.955 44.8542Z M78.8058 49.7713L82.1189 29.2739H86.8932L90.2063 49.7713H86.9222L86.3579 46.0549H82.3504L81.7861 49.7713H78.8058ZM82.7699 43.2676H85.9094L84.3469 32.9045L82.7699 43.2676Z M91.6965 49.7713V29.2739H96.2249L98.6266 43.825L100.855 29.2739H105.383V49.7713H102.301V35.0772L100.044 49.7713H96.9628L94.5322 35.2773V49.7713H91.6965Z M107.756 49.7713V29.2739H110.664V42.2527L111.85 37.7358L114.512 29.2739H118.1V49.7713H115.163V35.3345L113.832 40.3802L111.098 49.7713H107.756Z"/></svg>